<svg width="24" height="24" viewBox="0 0 24 24" fill="none" xmlns="http://www.w3.org/2000/svg">
<rect x="2" y="9.94727" width="1" height="4" fill="white"/>
<path d="M7.35347 19.8924L9.5829 17.885L6.23725 14.1693L3.48671 12.609L2.00042 13.9473L4.00781 16.1767L7.35347 19.8924Z" fill="white"/>
<path d="M7.35352 4L9.58295 6.00739L6.2373 9.72312L3.48676 11.2834L2.00047 9.94516L4.00786 7.71572L7.35352 4Z" fill="white"/>
<path d="M22 9.94727V13.9473L7 13.9473L4 12.9473L4 10.9473L7 9.94727L22 9.94727Z" fill="white"/>
<path d="M4.99982 11.9474C4.99982 10.5694 4.07068 9.40837 2.80469 9.05664V14.8383C4.07068 14.4865 4.99982 13.3255 4.99982 11.9474Z" fill="white"/>
</svg>
