<svg width="41" height="40" viewBox="0 0 41 40" fill="none" xmlns="http://www.w3.org/2000/svg">
<path d="M24.8695 4.16933C28.3156 4.66163 29.1772 8.47702 29.1772 10.3232C30.4079 6.32318 40.3692 4.61538 40.0615 13.2308C39.8154 20.1231 36.724 25.2102 35.1385 27.3846C33.553 29.5591 31.7342 31.8884 27.1385 34.1539C22.5427 36.4193 19.4849 36.4001 17.7926 35.5539C16.1003 34.7078 14.7157 31.0769 17.4849 29.2308C20.2542 27.3846 22.9542 24 23.9465 22.0155C23.4542 23.0001 22.2929 24.3386 21.4849 25.0924C20.6769 25.8462 18.9618 26.9386 17.4849 26.9386C16.1916 26.9386 15.5903 25.5228 15.5986 24.5509C15.3496 26.7955 15.0401 28.7138 12.3692 31.3846C9.69839 34.0555 3.84387 34.0155 2.10026 33.0924C0.356659 32.1693 -1.59204 28.4155 2.10026 19.5539C5.79257 10.6924 14.1003 6.01548 17.7926 4.78471C18.7156 4.37445 21.4233 3.67702 24.8695 4.16933Z" fill="#0C4C1F"/>
</svg>
