<svg width="41" height="33" viewBox="0 0 41 33" fill="none" xmlns="http://www.w3.org/2000/svg">
<path d="M24.8695 0.169327C28.3156 0.661634 29.1772 4.47702 29.1772 6.32317C30.4079 2.32318 40.3692 0.615385 40.0616 9.23077C39.8154 16.1231 36.724 21.2102 35.1385 23.3846C33.553 25.5591 31.7342 27.8884 27.1385 30.1539C22.5427 32.4193 19.4849 32.4001 17.7926 31.5539C16.1003 30.7078 14.7157 27.0769 17.4849 25.2308C20.2542 23.3846 22.9542 20 23.9465 18.0155C23.4542 19.0001 22.2929 20.3386 21.4849 21.0924C20.6769 21.8462 18.9618 22.9386 17.4849 22.9386C16.1916 22.9386 15.5903 21.5228 15.5986 20.5509C15.3496 22.7955 15.0401 24.7138 12.3692 27.3846C9.69839 30.0555 3.84387 30.0155 2.10026 29.0924C0.356659 28.1693 -1.59204 24.4155 2.10026 15.5539C5.79257 6.6924 14.1003 2.01548 17.7926 0.784711C18.7156 0.374455 21.4233 -0.322981 24.8695 0.169327Z" fill="#0C4C1F"/>
</svg>
