<svg width="67" height="53" viewBox="0 0 67 53" fill="none" xmlns="http://www.w3.org/2000/svg">
<path d="M41.3128 0.275156C46.9128 1.07516 48.3128 7.27516 48.3128 10.2752C50.3128 3.77517 66.4999 1 65.9999 15C65.5999 26.2 60.5763 34.4665 57.9999 38C55.4235 41.5335 52.468 45.3186 44.9999 49C37.5318 52.6814 32.5628 52.6501 29.8128 51.2752C27.0628 49.9002 24.8129 44 29.3129 41C33.8129 38 38.2005 32.5 39.8129 29.2752C39.0129 30.8752 37.1259 33.0503 35.8129 34.2752C34.4999 35.5 31.7129 37.2752 29.3129 37.2752C27.2112 37.2752 26.2342 34.9745 26.2477 33.3953C25.843 37.0427 25.3401 40.1599 20.9999 44.5C16.6598 48.8401 7.14619 48.7752 4.31283 47.2752C1.47947 45.7751 -1.68717 39.6752 4.31283 25.2752C10.3128 10.8751 23.8128 3.27515 29.8128 1.27516C31.3128 0.608489 35.7128 -0.524844 41.3128 0.275156Z" fill="#002C0D"/>
</svg>
